<svg width="64" height="64" viewBox="0 0 120 120" fill="none" xmlns="http://www.w3.org/2000/svg">
  <rect x="5" y="5" width="110" height="110" rx="28" fill="#F4F5F5" />
  <g transform="translate(18, 15) scale(0.85)">
    <!-- Main Left Stem & Top Arch (Copper) -->
    <path d="M10,80 L10,30 L50,0 L90,30 L90,45 L50,15 L25,35 L25,80 Z" fill="#b96a41" />
    
    <!-- Right Downward Stem (Copper) -->
    <path d="M50,45 L50,90 L75,90 L75,65 L90,55 L90,30 Z" fill="#b96a41" />

    <!-- Dark Shadow - Right Inner -->
    <path d="M50,0 L90,30 L75,40 L50,20 Z" fill="#3E2B26" />
    
    <!-- Dark Shadow - Bottom Left -->
    <path d="M10,80 L25,80 L50,60 L50,90 L30,105 Z" fill="#3E2B26" />
    
    <!-- Dark Shadow - Right Outer -->
    <path d="M75,65 L90,55 L105,65 L75,85 Z" fill="#3E2B26" />
  </g>
</svg>
